<svg width="48" height="48" viewBox="0 0 48 48" fill="none" xmlns="http://www.w3.org/2000/svg">
<path d="M14.7019 2.68148C19.1314 0.520051 24.2034 -0.135008 29.0169 0.829017C32.9036 1.6074 36.5667 3.42936 39.5693 6.07745C42.5447 8.70034 44.8558 12.095 46.2039 15.8768C47.6102 19.8231 47.9657 24.146 47.2238 28.2792C46.5103 32.2573 44.7873 36.0206 42.2578 39.1222C39.7412 42.2065 36.4646 44.6225 32.7989 46.056C28.9742 47.5504 24.767 47.9734 20.7316 47.2706C16.8204 46.5891 13.1069 44.8573 10.0371 42.2781C6.96725 39.699 4.6161 36.3958 3.18007 32.6511C2.44332 30.7284 1.94956 28.7049 1.72853 26.6508C1.61996 25.6444 1.55792 24.622 1.59282 23.6089C1.62642 22.6462 1.735 21.6862 1.85392 20.7314C1.91854 20.2129 1.98705 19.6945 2.0659 19.1773C2.08141 19.0792 2.05297 19.0116 1.97671 18.9532C2.04004 19.0023 1.98059 18.9559 1.95215 18.932C1.90174 18.8882 1.85133 18.8432 1.8035 18.7967C1.63418 18.635 1.47649 18.4599 1.33173 18.2756C0.894845 17.72 0.580754 17.0596 0.450207 16.3568C0.258909 15.3239 0.525173 14.2737 1.01376 13.3666C1.78412 11.9359 3.03789 10.7451 4.33044 9.81553C5.36319 9.07163 6.49676 8.5147 7.69883 8.12484C8.57389 7.84107 9.48126 7.66206 10.346 7.34381C11.0789 7.0733 11.7381 6.66621 12.1775 5.98993C12.33 5.75522 12.4218 5.494 12.5549 5.25001C12.5666 5.22879 12.5808 5.2089 12.595 5.18901C12.5782 5.21288 12.5898 5.19431 12.6183 5.16381C12.6752 5.10282 12.6105 5.14923 12.679 5.11608C12.7346 5.08956 12.6441 5.13199 12.6868 5.1121C12.701 5.10547 12.723 5.09884 12.7398 5.09884C12.6829 5.10017 12.7165 5.09884 12.7462 5.10282C12.8122 5.10812 12.7075 5.09353 12.7618 5.10282C12.7799 5.1068 12.7979 5.11077 12.8147 5.11873C12.8665 5.13995 12.7786 5.09619 12.8341 5.12801C12.8742 5.15055 12.9117 5.17442 12.9492 5.20227C12.9052 5.16912 13.0125 5.26062 13.0384 5.28846C13.0797 5.33222 13.1185 5.37731 13.156 5.42504C13.1831 5.45952 13.1418 5.40383 13.1624 5.433C13.1715 5.44626 13.1818 5.45952 13.1909 5.47278C13.2116 5.50195 13.2322 5.53245 13.2516 5.56162C13.2943 5.6266 13.3331 5.6929 13.3718 5.76053C13.7583 6.45272 13.9729 7.26558 14.1034 8.07711C14.2728 9.12335 14.2753 10.2226 14.0995 11.2742C13.8966 12.4795 13.4571 13.6345 12.7721 14.6383C11.95 15.8423 10.7997 16.7666 9.52133 17.415C7.72856 18.326 5.71218 18.7198 3.72941 18.8631C3.11415 18.9081 2.49631 18.9267 1.87847 18.928C1.62901 18.928 1.62901 19.3258 1.87847 19.3258C4.13915 19.3232 6.45411 19.0792 8.58552 18.261C10.0694 17.6908 11.4615 16.8289 12.5188 15.605C13.377 14.6118 13.9871 13.4157 14.3141 12.1321C14.6011 11.0023 14.6786 9.81421 14.5649 8.65393C14.4718 7.71643 14.2702 6.77627 13.8824 5.917C13.6846 5.47808 13.3292 4.75142 12.7824 4.71031C12.5498 4.69175 12.3624 4.82833 12.2383 5.0206C12.0974 5.2394 12.0224 5.49797 11.8854 5.72207C11.6812 6.05623 11.4072 6.33735 11.084 6.54952C10.3731 7.01761 9.51099 7.19795 8.70444 7.41807C7.58897 7.72306 6.49546 8.08772 5.46918 8.63802C4.04608 9.40049 2.7406 10.4706 1.68846 11.7131C0.861232 12.689 0.177476 13.8506 0.0275397 15.1555C-0.143077 16.638 0.492857 18.1085 1.55275 19.1031C1.62513 19.172 1.70139 19.237 1.78024 19.298L1.69105 19.0739C1.45969 20.5988 1.24642 22.149 1.20118 23.6925C1.14043 25.7916 1.41832 27.9331 1.925 29.9659C2.91898 33.952 4.93277 37.6463 7.70788 40.6139C10.4765 43.575 13.9819 45.7881 17.8118 46.9776C21.8032 48.2161 26.1138 48.3301 30.1634 47.3157C34.063 46.3398 37.686 44.3096 40.6098 41.4918C43.5232 38.6833 45.7153 35.1122 46.9148 31.1991C48.1647 27.1189 48.3198 22.6993 47.3763 18.5342C46.4663 14.5203 44.5249 10.7796 41.8067 7.74825C39.1014 4.73153 35.6451 2.44678 31.845 1.17511C27.4232 -0.30474 22.5748 -0.388281 18.1052 0.932447C16.8682 1.29843 15.6635 1.77183 14.5015 2.33937C14.2766 2.44943 14.4731 2.79287 14.6967 2.68281L14.7019 2.68148Z" fill="black"/>
<path d="M2.06721 19.1787C2.14218 18.6085 2.3477 18.0317 2.57131 17.5158C3.13616 16.207 4.00475 15.056 5.08403 14.1504C5.82725 13.5271 6.66999 13.0259 7.5528 12.6413C7.69886 12.5777 7.84621 12.5273 7.98322 12.4451C8.10989 12.3682 8.23528 12.2886 8.35936 12.2077C9.39082 11.5341 10.3732 10.7398 11.1862 9.79833C12.1323 8.70303 12.9001 7.29743 12.6416 5.78708C12.6106 5.60276 12.5614 5.42375 12.502 5.24739C12.4193 5.00738 12.0457 5.11081 12.1284 5.35347C12.6157 6.7763 11.9914 8.18853 11.1047 9.28781C10.3098 10.273 9.32102 11.0939 8.27793 11.79C8.08922 11.916 7.89533 12.0579 7.69111 12.1573C7.22708 12.3828 6.75271 12.5697 6.30161 12.8283C5.89317 13.0617 5.50024 13.3242 5.12798 13.6133C3.97115 14.5137 3.01208 15.6727 2.37356 17.0133C2.0711 17.6484 1.80741 18.3393 1.69884 19.0421C1.69755 19.0527 1.69497 19.0633 1.69367 19.0726C1.67945 19.18 1.71823 19.2848 1.82939 19.3179C1.91987 19.3444 2.05429 19.2848 2.06851 19.1787H2.06721Z" fill="black"/>
<path d="M47.7059 26.0886C47.7059 26.0886 44.3711 25.7213 43.4663 21.478C42.5616 17.2347 37.1328 21.3454 33.3263 23.9974C29.5197 26.6495 29.636 20.152 31.0578 18.2955C32.4797 16.4391 29.3775 12.1958 26.34 14.9155C23.3025 17.6351 24.7243 8.21767 25.6291 9.4111C26.5339 10.6045 28.085 8.21767 28.7313 6.36122C29.3775 4.50478 31.8334 6.62643 31.8334 6.62643C35.0648 7.95246 38.3582 4.83496 38.3582 4.83496C38.3582 4.83496 48.9739 12.1334 47.7059 26.0886Z" fill="black"/>
<path d="M47.7059 25.8897C47.6645 25.8857 47.7447 25.8963 47.7279 25.8923C47.702 25.8884 47.6749 25.8844 47.649 25.8791C47.5572 25.8618 47.4655 25.8406 47.375 25.8168C47.0519 25.7306 46.7584 25.6139 46.4715 25.4654C45.4995 24.9615 44.7356 24.1393 44.2406 23.1488C44.0738 22.8159 43.9394 22.4672 43.8295 22.1092C43.7197 21.7511 43.6589 21.3586 43.5374 20.9953C43.3681 20.4914 43.0811 20.022 42.6287 19.7409C41.6748 19.1495 40.4159 19.5446 39.4698 19.9438C38.0557 20.5392 36.7528 21.3918 35.4822 22.2564C34.8295 22.7006 34.1845 23.1567 33.5369 23.6089C33.0665 23.9391 32.5843 24.2892 32.0117 24.4006C31.6821 24.4655 31.3435 24.4032 31.1031 24.2149C30.8239 23.9948 30.6584 23.6659 30.5486 23.3265C30.2616 22.4354 30.2888 21.4263 30.4426 20.5113C30.5214 20.0432 30.6365 19.5778 30.8148 19.1389C30.8859 18.9638 30.9712 18.7888 31.0695 18.6257C31.1845 18.4347 31.3125 18.3021 31.4107 18.0873C31.8864 17.061 31.4365 15.837 30.7618 15.0242C29.976 14.0787 28.7351 13.5841 27.5511 13.966C27.2125 14.0747 26.8919 14.2445 26.6024 14.4527C26.3697 14.6197 26.1668 14.8279 25.9342 14.9884C25.7907 15.0878 25.6821 15.1488 25.5412 15.1886C25.5128 15.1966 25.4831 15.2032 25.4533 15.2085C25.4417 15.2112 25.4882 15.2059 25.4494 15.2085C25.4339 15.2085 25.4184 15.2112 25.4016 15.2112C25.3758 15.2112 25.3499 15.2112 25.3228 15.2085C25.2866 15.2059 25.3603 15.2165 25.3241 15.2085C25.3099 15.2045 25.2956 15.2032 25.2814 15.1979C25.262 15.1913 25.1909 15.1621 25.2413 15.186C25.2168 15.174 25.1948 15.1608 25.1715 15.1475C25.1612 15.1409 25.1509 15.1329 25.1405 15.1263C25.1315 15.1197 25.169 15.1515 25.1405 15.1263C25.1198 15.1077 25.0992 15.0878 25.0798 15.0679C25.0681 15.0547 25.0203 14.995 25.0501 15.0348C25.032 15.0096 25.0151 14.9844 24.9983 14.9579C24.9634 14.9009 24.9337 14.8412 24.9066 14.7789C24.9156 14.7988 24.8936 14.7457 24.8833 14.7179C24.8704 14.6821 24.8588 14.6463 24.8471 14.6091C24.8239 14.5349 24.8058 14.4593 24.789 14.3824C24.7489 14.1994 24.7308 14.0602 24.714 13.8891C24.639 13.0789 24.7024 12.2395 24.8303 11.4492C24.8898 11.0779 24.966 10.708 25.0707 10.3473C25.1547 10.0582 25.2116 9.85929 25.3628 9.62061C25.3745 9.60204 25.3874 9.58348 25.4003 9.56491C25.3667 9.61132 25.4029 9.56226 25.4184 9.54635C25.4314 9.53309 25.4443 9.52115 25.4572 9.50922C25.474 9.49331 25.4197 9.53707 25.4662 9.50524C25.5063 9.47739 25.4275 9.51452 25.4675 9.50524C25.5115 9.49463 25.4133 9.5132 25.4637 9.50657C25.4701 9.50657 25.4081 9.50789 25.4559 9.50789C25.4016 9.50789 25.4546 9.51452 25.4559 9.5132C25.443 9.52115 25.4275 9.4774 25.4598 9.52115C25.4818 9.55033 25.5063 9.5795 25.5296 9.60602C25.6149 9.7068 25.7209 9.79432 25.8398 9.85134C26.0699 9.9614 26.3245 9.95079 26.5572 9.85399C27.1595 9.60469 27.5951 8.98942 27.9376 8.45105C28.1586 8.10363 28.3538 7.73897 28.527 7.36503C28.6873 7.01893 28.7997 6.65162 28.9574 6.30685C29.4253 5.28448 30.7101 6.05623 31.328 6.48985C31.3991 6.54023 31.4701 6.59195 31.5399 6.64499C31.5542 6.65693 31.6317 6.7166 31.5942 6.68742C31.6136 6.70334 31.633 6.71792 31.6511 6.73384C31.8321 6.88235 32.0893 6.9407 32.3116 6.99904C33.0677 7.2006 33.8588 7.19397 34.6214 7.0375C35.839 6.7882 36.9855 6.17292 37.9717 5.41046C38.1488 5.27255 38.3271 5.13199 38.4913 4.97817L38.256 5.00867C38.3517 5.07497 38.4448 5.14525 38.5378 5.21553C38.5882 5.25398 38.6386 5.29244 38.6878 5.33222C38.7007 5.34283 38.7136 5.35211 38.7265 5.36272C38.7382 5.372 38.6968 5.33885 38.7408 5.37465C38.7731 5.39985 38.8041 5.42504 38.8364 5.45156C38.9838 5.57091 39.1285 5.69157 39.2707 5.8149C40.1445 6.56676 40.9601 7.39022 41.7188 8.26275C42.8032 9.51187 43.7688 10.8697 44.5882 12.3164C45.5822 14.0721 46.3565 15.9551 46.8683 17.9163C47.4784 20.258 47.7059 22.69 47.5792 25.1087C47.5624 25.4362 47.5379 25.7637 47.5094 26.0899C47.4862 26.3445 47.8739 26.3432 47.8972 26.0899C48.1208 23.6023 47.9838 21.0842 47.4448 18.6456C46.9885 16.5836 46.2466 14.5919 45.2643 12.7341C44.4525 11.1973 43.4754 9.75321 42.3702 8.4232C41.5753 7.46448 40.7119 6.5641 39.7838 5.74064C39.4917 5.48206 39.1944 5.23144 38.8881 4.99143C38.7524 4.88535 38.6167 4.766 38.4706 4.67716C38.4641 4.67318 38.459 4.6692 38.4525 4.66523C38.3788 4.61484 38.278 4.63871 38.2173 4.69573C37.6447 5.23542 36.948 5.68229 36.241 6.04032C35.6037 6.36255 34.92 6.60521 34.2155 6.70731C33.8394 6.76168 33.4555 6.77229 33.0781 6.73649C32.8777 6.71792 32.68 6.68212 32.4848 6.63306C32.3917 6.60919 32.2987 6.58399 32.2069 6.5535C32.1604 6.53891 32.1138 6.523 32.0673 6.50576C32.044 6.4978 32.0208 6.48852 31.9975 6.48056C31.9872 6.47659 31.8876 6.44476 31.9471 6.46996C31.9936 6.48852 31.9303 6.45537 31.9096 6.43946C31.854 6.39437 31.7985 6.35061 31.7416 6.30685C31.58 6.18353 31.4146 6.06684 31.2427 5.95943C30.8109 5.68892 30.3288 5.45024 29.8183 5.40648C29.278 5.36139 28.8178 5.64649 28.6007 6.15436C28.4443 6.51769 28.3215 6.89296 28.1509 7.25099C27.9712 7.62891 27.7683 7.99754 27.5395 8.34629C27.343 8.64465 27.1259 8.93107 26.8661 9.17373C26.6968 9.33286 26.4822 9.50259 26.2457 9.53044C26.0233 9.55563 25.8915 9.41375 25.7493 9.25462C25.6769 9.17373 25.5826 9.11274 25.4727 9.10743C25.2569 9.09815 25.103 9.28777 25.0022 9.46016C24.8562 9.71078 24.7644 9.99853 24.6856 10.2783C24.4645 11.0607 24.3508 11.8841 24.3094 12.697C24.2719 13.4276 24.2681 14.2445 24.5511 14.9314C24.6519 15.1767 24.807 15.4154 25.0488 15.5321C25.3279 15.666 25.6317 15.601 25.8992 15.4671C26.0737 15.3796 26.2327 15.2589 26.3827 15.1329C26.6632 14.8969 26.9398 14.6715 27.2668 14.507C27.8187 14.2286 28.4482 14.1503 29.0427 14.3214C30.1026 14.6264 30.957 15.6328 31.1716 16.7321C31.2633 17.2042 31.2142 17.7094 30.9441 18.1125C30.7063 18.4679 30.5072 18.818 30.3624 19.229C30.0341 20.1559 29.901 21.1876 29.9566 22.1715C30.0031 22.9936 30.1815 23.9921 30.8601 24.5252C31.6692 25.1617 32.7226 24.6552 33.4542 24.146C34.7674 23.231 36.0665 22.2922 37.4314 21.4607C38.0777 21.0682 38.7382 20.6956 39.4284 20.3906C39.9751 20.148 40.5607 19.9332 41.1565 19.8682C41.6141 19.8191 42.0898 19.8576 42.4827 20.1241C42.9196 20.4211 43.138 20.9489 43.2556 21.4541C43.5749 22.8239 44.1333 24.1181 45.188 25.0609C45.7942 25.6019 46.5245 26.013 47.3065 26.2146C47.4357 26.2477 47.5676 26.2756 47.7007 26.2901C47.9489 26.318 47.9463 25.9202 47.7007 25.8923L47.7059 25.8897Z" fill="black"/>
<path d="M33.5511 45.9606C33.8484 44.9833 29.8932 43.6228 27.9544 46.0097C26.0156 48.3965 23.5597 44.1532 20.0698 44.2858C16.5799 44.4184 21.3624 40.4403 19.6821 40.1751C18.0018 39.9099 13.6071 35.0036 12.8315 37.6557C12.056 40.3077 5.18481 37.0404 5.18481 37.0404C5.18481 37.0404 14.5894 53.0734 33.5511 45.9606Z" fill="black"/>
<path d="M33.7386 46.0135C33.8847 45.495 33.3185 45.1052 32.9359 44.9169C32.2599 44.5827 31.4792 44.4528 30.7334 44.4846C29.8532 44.5231 28.9924 44.8082 28.3021 45.3797C27.9777 45.6475 27.7502 46.0241 27.4103 46.2694C27.1673 46.4445 26.8907 46.54 26.5934 46.54C25.9148 46.54 25.2659 46.1514 24.692 45.8212C23.9294 45.381 23.1836 44.9089 22.3732 44.5642C21.9544 44.3851 21.5188 44.2419 21.0716 44.1624C20.8364 44.1199 20.5972 44.0934 20.3581 44.0855C20.15 44.0788 19.9419 44.0961 19.7338 44.0855C19.5942 44.0788 19.4559 44.0616 19.3202 44.0218C19.2569 44.0033 19.2297 43.994 19.1884 43.9714C19.1664 43.9608 19.147 43.9476 19.1263 43.9356C19.116 43.9303 19.1069 43.9237 19.0979 43.9171C19.0785 43.9038 19.1186 43.937 19.0914 43.9131C19.0733 43.8972 19.0578 43.8813 19.041 43.864C19.0152 43.8375 19.0203 43.8375 19.0242 43.8441C19.0126 43.8256 19.0009 43.8057 18.9906 43.7858C18.9673 43.742 18.9906 43.7964 18.979 43.7579C18.9738 43.738 18.9686 43.7195 18.9635 43.6996C18.9505 43.6479 18.9596 43.6903 18.9583 43.6678C18.9544 43.6187 18.9557 43.5696 18.9583 43.5206C18.9609 43.4742 18.9583 43.5126 18.9609 43.4874C18.9635 43.4622 18.9686 43.4397 18.9738 43.4158C18.9854 43.3588 18.9996 43.3031 19.0177 43.2487C19.0539 43.1294 19.0901 43.0419 19.1354 42.9398C19.2465 42.6905 19.3797 42.4518 19.5141 42.2144C19.7597 41.7821 20.0544 41.3446 20.1978 40.8606C20.2521 40.6762 20.2793 40.4601 20.1888 40.2824C20.097 40.1034 19.9212 40.0199 19.7351 39.984C19.1987 39.8793 18.714 39.5345 18.2538 39.2229C17.6114 38.788 16.9923 38.3172 16.3538 37.877C15.7721 37.4765 15.1672 37.0761 14.5054 36.8294C14.0285 36.6517 13.4507 36.5642 13.0345 36.9302C12.82 37.1185 12.7191 37.3811 12.6312 37.6476C12.564 37.8491 12.427 38.0427 12.2693 38.1594C11.8376 38.4817 11.2443 38.5122 10.7144 38.4883C10.0138 38.4565 9.32102 38.3026 8.64501 38.1157C7.98193 37.9327 7.33049 37.7086 6.68809 37.4606C6.43346 37.3625 6.18141 37.2604 5.92936 37.1543C5.76391 37.084 5.63983 37.031 5.45629 36.9474C5.39813 36.9209 5.33867 36.8944 5.28051 36.8666C5.11506 36.7883 4.90696 36.9554 5.01553 37.1384C5.10084 37.2843 5.1939 37.4248 5.28697 37.5654C5.55194 37.9619 5.83371 38.3477 6.12454 38.7243C6.55237 39.2773 7.00347 39.8117 7.47396 40.3262C8.075 40.9826 8.70964 41.6084 9.37531 42.1972C10.156 42.8907 10.9794 43.5352 11.8389 44.1239C12.7876 44.7737 13.7829 45.3518 14.8157 45.8491C15.9596 46.3994 17.1474 46.8516 18.365 47.1924C19.7028 47.5663 21.0768 47.805 22.4598 47.9124C24.0018 48.0317 25.5542 47.9853 27.0884 47.7931C28.8398 47.5743 30.5654 47.1738 32.247 46.6261C32.702 46.4776 33.1531 46.3198 33.6016 46.1514C33.8343 46.0639 33.7334 45.6794 33.4982 45.7682C31.7894 46.4074 30.0303 46.9099 28.2349 47.2229C26.6813 47.4934 25.1018 47.6167 23.5249 47.5716C22.1315 47.5318 20.7433 47.3568 19.3835 47.0425C18.1479 46.7561 16.9341 46.3583 15.767 45.8517C14.698 45.3876 13.6653 44.8347 12.6791 44.2061C11.7963 43.6439 10.9509 43.022 10.1483 42.347C9.45027 41.7596 8.78203 41.1324 8.14868 40.472C7.63424 39.935 7.14178 39.3767 6.67517 38.7946C6.57822 38.6739 6.48258 38.5519 6.38822 38.4299C6.34557 38.3756 6.3042 38.3199 6.26155 38.2642C6.22665 38.2178 6.26284 38.2668 6.22148 38.2098C6.20209 38.1833 6.18142 38.1568 6.16203 38.1289C6.02631 37.9446 5.89317 37.759 5.76262 37.5707C5.63208 37.3824 5.51187 37.149 5.36581 36.9633C5.35935 36.9554 5.35547 36.9461 5.3503 36.9368L5.08533 37.2087C5.85569 37.5747 6.65578 37.8876 7.46104 38.1621C8.13834 38.3941 8.82855 38.5957 9.5317 38.7323C10.1844 38.8596 10.8617 38.9431 11.5235 38.8476C12.0457 38.7721 12.5653 38.5519 12.8549 38.0785C12.9957 37.8491 13.0268 37.5786 13.1728 37.3559C13.2194 37.2856 13.2943 37.21 13.3641 37.1662C13.4443 37.1158 13.5102 37.0906 13.6265 37.0721C13.5942 37.0774 13.6575 37.0694 13.6705 37.0681C13.6963 37.0668 13.7234 37.0655 13.7493 37.0655C13.7958 37.0655 13.8889 37.0721 13.9057 37.0747C14.0362 37.092 14.1655 37.1278 14.2909 37.1702C14.5895 37.2697 14.8712 37.4155 15.1453 37.572C15.8109 37.9512 16.4326 38.4074 17.0556 38.8556C17.6257 39.2667 18.1944 39.6936 18.8096 40.0344C19.0358 40.1591 19.275 40.2798 19.5257 40.3421C19.5735 40.354 19.6227 40.3606 19.6718 40.3713C19.6924 40.3752 19.7131 40.3819 19.7338 40.3872C19.7429 40.3898 19.7532 40.3938 19.7622 40.3964C19.8036 40.411 19.7558 40.3925 19.7674 40.3991C19.7829 40.4071 19.7984 40.415 19.8127 40.4256C19.8514 40.4548 19.7842 40.4018 19.8204 40.4322C19.8372 40.4468 19.8411 40.4521 19.8463 40.4667C19.8359 40.4415 19.8618 40.5635 19.8566 40.4986C19.8592 40.5383 19.8592 40.5768 19.8553 40.6166C19.8553 40.606 19.8605 40.594 19.8514 40.6351C19.8463 40.6577 19.8424 40.6802 19.8359 40.7028C19.8243 40.7492 19.8088 40.7943 19.7933 40.8393C19.7299 41.0157 19.6033 41.2557 19.4934 41.4559C19.2297 41.932 18.9337 42.3948 18.7282 42.9026C18.5692 43.2965 18.4503 43.807 18.7773 44.1504C19.2465 44.6424 20.0918 44.4395 20.6825 44.5005C22.4249 44.6809 23.7717 45.8836 25.3151 46.5943C25.9045 46.8662 26.5856 47.0704 27.2164 46.8184C27.5525 46.6845 27.8342 46.4524 28.0682 46.174C28.3668 45.8186 28.7015 45.5216 29.1087 45.3041C29.8442 44.9103 30.7063 44.8082 31.5232 44.9103C32.0945 44.9819 32.8041 45.1635 33.2164 45.5759C33.294 45.6528 33.3159 45.6741 33.3599 45.7762C33.3392 45.7271 33.3754 45.8836 33.3715 45.8186C33.3728 45.8398 33.3741 45.861 33.3715 45.8822C33.3741 45.8637 33.3754 45.8677 33.3638 45.9061C33.294 46.1527 33.6688 46.2575 33.7373 46.0122L33.7386 46.0135Z" fill="black"/>
<path d="M10.2465 21.7432C10.2465 21.7432 17.3555 18.6933 17.4848 22.141C17.614 25.5887 20.4576 29.6994 21.7502 27.3125C23.0427 24.9257 27.9544 31.6884 25.1108 31.0254C22.2672 30.3624 15.6752 32.8819 14.1241 29.832C12.5731 26.7821 12.8316 25.1909 8.82468 25.1909C4.81777 25.1909 7.79064 23.5996 7.91989 22.141C8.04915 20.6824 8.95393 23.8648 10.2465 21.7432Z" fill="black"/>
<path d="M10.2981 21.9354C11.4485 21.4422 12.6713 21.0589 13.8979 20.8362C14.6812 20.693 15.5562 20.5882 16.3253 20.8401C16.611 20.9343 16.894 21.1067 17.0556 21.3493C17.296 21.71 17.2766 22.1171 17.3193 22.5507C17.4524 23.9271 17.919 25.3022 18.6416 26.4718C18.9388 26.9532 19.2891 27.4199 19.7273 27.774C20.053 28.0365 20.4589 28.2619 20.8867 28.2182C21.3443 28.1704 21.6778 27.8376 21.9014 27.4464C22.0435 27.1958 22.1754 27.0553 22.4391 27.0075C22.4921 26.9982 22.3977 27.0102 22.452 27.0062C22.4662 27.0062 22.4791 27.0035 22.4934 27.0035C22.5244 27.0035 22.5541 27.0022 22.5851 27.0035C22.6795 27.0075 22.6717 27.0075 22.7583 27.0261C22.9044 27.0592 23.0388 27.1109 23.1526 27.168C23.4666 27.3244 23.7497 27.5366 24.0095 27.77C24.5808 28.2818 25.0823 28.8998 25.452 29.5813C25.5994 29.8532 25.7131 30.0892 25.7726 30.3982C25.7881 30.4804 25.7855 30.4433 25.7894 30.5374C25.7894 30.5613 25.7894 30.5838 25.7894 30.6077C25.7894 30.621 25.7881 30.6342 25.7868 30.6475C25.7842 30.6886 25.7971 30.6024 25.7868 30.6528C25.7816 30.6753 25.7764 30.6965 25.7713 30.7178C25.7558 30.7788 25.7777 30.7085 25.7635 30.7403C25.7545 30.7589 25.7428 30.7761 25.7325 30.7933C25.7674 30.7416 25.7273 30.7986 25.7118 30.8119C25.6743 30.8424 25.7428 30.7947 25.6873 30.8291C25.6692 30.8397 25.6226 30.8583 25.6692 30.8411C25.6446 30.8504 25.62 30.857 25.5942 30.8649C25.5813 30.8689 25.567 30.8702 25.5528 30.8729C25.6032 30.8636 25.558 30.8729 25.5451 30.8729C25.3822 30.8835 25.2891 30.8636 25.1392 30.8318C24.6855 30.7323 24.2189 30.7098 23.7575 30.7151C22.6084 30.7284 21.4632 30.8954 20.3219 31.0188C19.165 31.1421 17.9862 31.2588 16.8242 31.1368C15.9518 31.0453 14.9733 30.7748 14.4459 29.9951C14.128 29.5257 13.9147 28.9594 13.6872 28.4396C13.4882 27.9848 13.2981 27.5233 13.0719 27.0818C12.8807 26.7065 12.6557 26.3419 12.3636 26.0395C12.0715 25.7372 11.6928 25.4985 11.2921 25.3433C10.7673 25.1391 10.1973 25.0609 9.64023 25.0238C8.9332 24.976 8.21066 25.0476 7.51268 24.9031C7.41057 24.8819 7.30717 24.8567 7.20894 24.8196C7.16887 24.805 7.14948 24.7957 7.10941 24.7745C7.09002 24.7639 7.01764 24.7161 7.03703 24.732C7.01376 24.7135 6.99179 24.6909 6.9711 24.6684C6.98532 24.6843 6.95947 24.6565 6.94655 24.6273C6.92716 24.5809 6.96206 24.6684 6.94397 24.6207C6.94009 24.6101 6.93621 24.5968 6.93492 24.5862C6.93362 24.5729 6.92975 24.5398 6.93492 24.5888C6.93362 24.5689 6.93233 24.5491 6.93362 24.5292C6.93621 24.4748 6.92587 24.5424 6.9375 24.4894C6.94397 24.4562 6.95301 24.4244 6.96335 24.3926C6.98532 24.3223 6.99825 24.2971 7.0422 24.2149C7.12234 24.0624 7.21928 23.9179 7.31622 23.776C7.53208 23.4591 7.76344 23.1488 7.9263 22.8C8.00515 22.6303 8.07236 22.4539 8.1008 22.2683C8.11502 22.1755 8.1176 22.0932 8.1344 22.015C8.14086 21.9872 8.14733 21.958 8.15638 21.9301C8.17318 21.8824 8.13958 21.9686 8.15767 21.9275C8.17448 21.889 8.14863 21.9248 8.15767 21.9235C8.17448 21.9222 8.10597 21.95 8.12148 21.9461C8.04522 21.9646 8.13441 21.9474 8.05944 21.9461C8.06332 21.9461 8.08271 21.95 8.08529 21.954C8.06461 21.9262 8.06202 21.9394 8.09563 21.9633C8.10597 21.9699 8.11631 21.9779 8.12665 21.9845C8.1512 22.0017 8.0995 21.9606 8.14216 21.9978C8.24427 22.0853 8.33733 22.1834 8.43557 22.2736C8.68115 22.499 8.97586 22.7138 9.32097 22.7059C9.8186 22.6939 10.1715 22.2471 10.4145 21.8532C10.5489 21.6358 10.2128 21.4369 10.0797 21.653C9.94656 21.8691 9.77594 22.1171 9.5407 22.2444C9.40369 22.3187 9.28736 22.3253 9.15552 22.2855C8.89701 22.2073 8.69537 21.9739 8.47434 21.7697C8.28175 21.592 7.98188 21.4223 7.81644 21.7392C7.73242 21.901 7.74276 22.1025 7.71045 22.2524C7.67296 22.4287 7.60834 22.5746 7.52561 22.7324C7.34207 23.0785 7.10166 23.3888 6.88839 23.7163C6.72294 23.9683 6.52518 24.2746 6.54845 24.5928C6.57559 24.9813 6.93363 25.1683 7.26064 25.2572C7.94569 25.4428 8.66952 25.3831 9.36879 25.4123C10.3447 25.4534 11.4188 25.6046 12.1258 26.3644C12.4115 26.6707 12.6196 27.0433 12.8044 27.4212C13.037 27.896 13.2361 28.3866 13.4507 28.8693C13.6794 29.3824 13.894 29.942 14.2443 30.3836C14.539 30.7549 14.9371 31.0174 15.3649 31.1991C16.3692 31.6221 17.5222 31.6234 18.5886 31.5704C19.8191 31.5094 21.0392 31.3317 22.2646 31.2137C22.8152 31.1607 23.3671 31.1182 23.9203 31.1209C24.1607 31.1209 24.4012 31.1315 24.639 31.158C24.8316 31.1792 25.019 31.2283 25.209 31.2588C25.474 31.3012 25.7881 31.3025 25.9923 31.0943C26.1758 30.9087 26.1965 30.6369 26.1603 30.3876C26.0621 29.6994 25.6213 29.0536 25.2155 28.5179C24.7424 27.8946 24.1685 27.2953 23.4899 26.9094C22.9651 26.611 22.2672 26.4373 21.7954 26.9319C21.5317 27.2077 21.4218 27.6268 21.0573 27.7819C20.6928 27.9371 20.3374 27.7541 20.0362 27.5286C19.5916 27.1958 19.2452 26.7211 18.9556 26.2464C18.5911 25.6497 18.3029 25.0026 18.0883 24.3342C17.866 23.6434 17.7161 22.926 17.6825 22.198C17.6631 21.7803 17.5713 21.3825 17.3115 21.051C16.8242 20.4277 15.9582 20.3058 15.2292 20.3124C14.3076 20.3203 13.3873 20.5206 12.5006 20.7672C11.8246 20.9555 11.159 21.1809 10.5049 21.4382C10.4015 21.4793 10.2981 21.5204 10.196 21.5642C10.0939 21.6079 10.0319 21.6954 10.0603 21.8095C10.0849 21.9036 10.2025 21.9898 10.2994 21.9487L10.2981 21.9354Z" fill="black"/>
<path d="M35.322 37.3903C39.4581 34.3404 39.9751 37.5229 41.1384 35.0034C42.3017 32.484 41.914 38.4511 40.6214 38.4511C39.3289 38.4511 36.7438 38.5837 36.7438 39.3793C36.7438 40.1749 32.8041 42.164 32.8997 39.3793C32.9954 36.5947 32.4784 38.7163 34.2879 38.4511C36.0975 38.1859 35.322 37.3903 35.322 37.3903Z" fill="black"/>
<path d="M35.4202 37.5614C36.5021 36.7685 37.7455 36.0537 39.1182 36.1717C39.431 36.1983 39.749 36.2805 40.063 36.2606C40.403 36.2394 40.6822 36.0723 40.8954 35.8018C41.0531 35.6029 41.1759 35.3788 41.2845 35.148C41.3349 35.0406 41.3853 34.9332 41.4435 34.8311C41.4655 34.7913 41.4887 34.7529 41.5133 34.7144C41.5236 34.6985 41.534 34.6839 41.5443 34.6694C41.5598 34.6468 41.534 34.68 41.5624 34.6455C41.5818 34.6229 41.6012 34.603 41.6219 34.5832C41.6193 34.5858 41.6361 34.5765 41.6296 34.5765C41.6348 34.5765 41.6025 34.5792 41.6141 34.5805C41.6025 34.5792 41.5611 34.5659 41.5895 34.5779C41.5727 34.5712 41.5443 34.5527 41.5715 34.5725C41.5404 34.55 41.5624 34.5725 41.5482 34.5513C41.5611 34.5699 41.5857 34.6322 41.565 34.5765C41.587 34.6335 41.5999 34.6919 41.6115 34.7516C41.6141 34.7675 41.6167 34.7834 41.6193 34.798C41.6193 34.8006 41.618 34.7768 41.6219 34.8205C41.6257 34.8643 41.6296 34.9054 41.6322 34.9478C41.6374 35.0367 41.64 35.1268 41.6387 35.217C41.6374 35.4345 41.6219 35.6533 41.5986 35.8694C41.5495 36.3269 41.459 36.787 41.3207 37.2259C41.2121 37.5694 41.0699 37.9447 40.8179 38.1674C40.7843 38.1979 40.8282 38.1621 40.8024 38.1807C40.7895 38.1886 40.7778 38.1979 40.7649 38.2059C40.752 38.2138 40.7391 38.2205 40.7261 38.2271C40.7016 38.2404 40.7533 38.2205 40.7067 38.235C40.677 38.2443 40.6201 38.2523 40.6563 38.2496C40.602 38.2536 40.549 38.251 40.4948 38.251C40.16 38.2536 39.8252 38.2629 39.4904 38.2828C38.8028 38.3226 38.088 38.3783 37.4262 38.5865C37.1884 38.6607 36.9402 38.7588 36.7541 38.9352C36.6766 39.0095 36.6106 39.1023 36.577 39.207C36.5615 39.2561 36.5538 39.3078 36.5499 39.3595C36.5447 39.4311 36.5641 39.341 36.5447 39.4033C36.5266 39.4616 36.5538 39.398 36.5305 39.4404C36.5137 39.4709 36.4969 39.5001 36.4775 39.5293C36.4594 39.5558 36.493 39.5107 36.4633 39.5478C36.4517 39.5611 36.4413 39.5743 36.4297 39.5876C36.4012 39.6208 36.3702 39.6526 36.3392 39.6831C36.197 39.821 36.0536 39.9231 35.8829 40.0305C35.4822 40.2811 35.0389 40.4694 34.5775 40.5636C34.191 40.6431 33.7464 40.6564 33.4348 40.4124C33.0277 40.0928 33.0975 39.447 33.1052 38.9538C33.1091 38.6832 33.1078 38.4141 33.0988 38.1436C33.0975 38.0865 33.0988 38.0282 33.0936 37.9725C33.0884 37.9248 33.1027 37.9672 33.0897 37.9844C33.0341 38.0587 33.144 37.9964 32.9669 38.0706C32.7627 38.1555 32.9191 38.1024 32.8183 38.0971C32.8196 38.0971 32.764 38.06 32.7912 38.0773C32.8183 38.0958 32.7588 38.0335 32.7886 38.0733C32.8093 38.1011 32.8286 38.129 32.8506 38.1555C32.8842 38.1979 32.9191 38.2404 32.9566 38.2788C33.082 38.4048 33.2319 38.5003 33.3948 38.5652C33.6223 38.6567 33.8743 38.6819 34.1173 38.6647C34.4896 38.6395 34.8838 38.5599 35.2199 38.3915C35.5895 38.2072 35.7989 37.8319 35.5934 37.4355C35.5585 37.3678 35.512 37.3002 35.459 37.2458C35.2832 37.0642 35.0092 37.3453 35.185 37.5269C35.2005 37.5429 35.2405 37.6012 35.2018 37.5442C35.2147 37.5628 35.2276 37.5813 35.2392 37.5999C35.2483 37.6158 35.2793 37.6794 35.2716 37.6582C35.2897 37.7007 35.3 37.7351 35.2935 37.7948C35.2987 37.7497 35.2716 37.8571 35.2858 37.8253C35.2638 37.8757 35.2599 37.8783 35.2302 37.9088C35.013 38.1343 34.6175 38.1939 34.3241 38.2417C34.0682 38.2841 33.8071 38.2894 33.5589 38.2046C33.4904 38.1807 33.4206 38.1436 33.3431 38.0932C33.2991 38.064 33.272 38.0415 33.2125 37.9778C33.1944 37.9579 33.1763 37.938 33.1582 37.9168C33.1505 37.9075 33.1427 37.8969 33.1337 37.8863C33.1065 37.8532 33.1595 37.9208 33.135 37.889C33.1104 37.8558 33.0884 37.816 33.0574 37.7882C32.8971 37.637 32.7123 37.7802 32.7058 37.9725C32.6994 38.1422 32.7162 38.3146 32.7188 38.4843C32.7252 39.1076 32.5869 39.8342 32.9178 40.3991C33.1608 40.8142 33.6042 40.9945 34.0591 41.0091C34.5607 41.025 35.0609 40.8725 35.5171 40.671C35.923 40.4906 36.334 40.2546 36.6494 39.9297C36.7619 39.813 36.873 39.6751 36.9196 39.5133C36.9299 39.4762 36.9351 39.4364 36.939 39.398C36.9441 39.3489 36.9286 39.3728 36.9532 39.3118C36.9506 39.3171 36.9803 39.268 36.9868 39.2601C37.0165 39.2256 37.0514 39.1951 37.0785 39.1752C37.2957 39.0174 37.5736 38.9485 37.8282 38.8888C38.1746 38.8079 38.5262 38.7602 38.8791 38.7257C39.2319 38.6912 39.6145 38.6687 39.9816 38.6567C40.2375 38.6488 40.5348 38.6925 40.783 38.6249C41.1307 38.5308 41.3517 38.1674 41.4952 37.8545C41.6942 37.4182 41.8157 36.9475 41.8998 36.4754C41.9812 36.0193 42.0355 35.5512 42.0251 35.0871C42.0187 34.8258 42.0187 34.3896 41.7692 34.2291C41.4616 34.0315 41.2018 34.4532 41.0803 34.68C40.9588 34.9067 40.8554 35.1613 40.7119 35.3854C40.6537 35.4769 40.6124 35.5352 40.5413 35.6135C40.4754 35.6851 40.4418 35.7143 40.3875 35.7514C40.359 35.77 40.3293 35.7872 40.2996 35.8031C40.2556 35.8256 40.3164 35.7978 40.2841 35.8111C40.266 35.8177 40.2479 35.8243 40.2285 35.831C40.1988 35.8402 40.1677 35.8469 40.1367 35.8535C40.1251 35.8561 40.0721 35.8628 40.1225 35.8562C40.1057 35.8575 40.0876 35.8601 40.0708 35.8615C39.9209 35.8681 39.7748 35.8535 39.6262 35.8349C39.2203 35.7819 38.8196 35.7342 38.4099 35.7753C37.7326 35.8429 37.0902 36.0869 36.4891 36.4078C36.0471 36.6425 35.6283 36.921 35.225 37.218C35.0234 37.3652 35.2173 37.7113 35.4202 37.5614Z" fill="black"/>
</svg>
