<svg width="128" height="128" viewBox="0 0 128 128" fill="none" xmlns="http://www.w3.org/2000/svg">
<path d="M39.205 7.15062C51.0172 1.3868 64.5424 -0.360023 77.3783 2.21071C87.7429 4.28639 97.5111 9.14497 105.518 16.2065C113.453 23.2009 119.615 32.2533 123.21 42.3382C126.961 52.8616 127.908 64.3892 125.93 75.4112C124.027 86.0195 119.433 96.0549 112.687 104.326C105.976 112.551 97.2388 118.993 87.4637 122.816C77.2646 126.801 66.0453 127.929 55.2843 126.055C44.8543 124.237 34.9516 119.619 26.7655 112.742C18.5793 105.864 12.3096 97.0556 8.4802 87.0697C6.51552 81.9424 5.19883 76.5463 4.60942 71.0689C4.31989 68.385 4.15445 65.6587 4.24751 62.9571C4.33713 60.3899 4.62667 57.8298 4.94377 55.2838C5.11611 53.9012 5.2988 52.5186 5.50906 51.1395C5.55042 50.8778 5.47459 50.6975 5.27123 50.5419C5.44012 50.6728 5.28156 50.549 5.20574 50.4853C5.07131 50.3686 4.93688 50.2484 4.80934 50.1247C4.35781 49.6933 3.93732 49.2265 3.55127 48.735C2.38625 47.2534 1.54868 45.4924 1.20055 43.6183C0.690424 40.8637 1.40046 38.0631 2.70335 35.6444C4.75765 31.829 8.10104 28.6536 11.5478 26.1748C14.3018 24.191 17.3247 22.7059 20.5302 21.6663C22.8637 20.9095 25.2834 20.4322 27.5893 19.5835C29.5436 18.8621 31.3015 17.7766 32.4734 15.9732C32.8801 15.3473 33.1248 14.6507 33.4799 14C33.5109 13.9434 33.5488 13.8904 33.5867 13.8374C33.5419 13.901 33.5729 13.8515 33.6487 13.7702C33.8004 13.6075 33.6281 13.7313 33.8108 13.6429C33.959 13.5722 33.7177 13.6853 33.8314 13.6323C33.8694 13.6146 33.9279 13.5969 33.9727 13.5969C33.8211 13.6004 33.9107 13.5969 33.99 13.6075C34.1658 13.6217 33.8866 13.5828 34.0314 13.6075C34.0796 13.6181 34.1279 13.6287 34.1727 13.6499C34.3105 13.7065 34.0762 13.5898 34.2244 13.6747C34.3312 13.7348 34.4312 13.7985 34.5311 13.8727C34.4139 13.7843 34.7 14.0283 34.769 14.1026C34.8793 14.2193 34.9827 14.3395 35.0826 14.4668C35.155 14.5587 35.0447 14.4102 35.0999 14.488C35.124 14.5234 35.1516 14.5587 35.1757 14.5941C35.2308 14.6719 35.286 14.7532 35.3377 14.831C35.4514 15.0043 35.5548 15.1811 35.6582 15.3614C36.6888 17.2072 37.261 19.3749 37.6091 21.539C38.0607 24.3289 38.0676 27.2603 37.5988 30.0645C37.0576 33.2788 35.8857 36.3587 34.0589 39.0355C31.8667 42.2463 28.7991 44.7109 25.3902 46.4401C20.6095 48.8694 15.2325 49.9196 9.94509 50.3015C8.30441 50.4217 6.65684 50.4712 5.00926 50.4747C4.34403 50.4747 4.34403 51.5356 5.00926 51.5356C11.0377 51.5285 17.211 50.8778 22.8947 48.6961C26.8517 47.1756 30.5639 44.8771 33.3834 41.6133C35.672 38.9648 37.2989 35.7752 38.171 32.3523C38.9361 29.3396 39.1429 26.1712 38.8396 23.0771C38.5915 20.5771 38.0538 18.0701 37.0197 15.7787C36.4924 14.6082 35.5445 12.6705 34.0865 12.5608C33.4661 12.5113 32.9663 12.8755 32.6354 13.3883C32.2597 13.9717 32.0598 14.6613 31.6944 15.2589C31.1498 16.15 30.4191 16.8996 29.5574 17.4654C27.6616 18.7136 25.3626 19.1945 23.2118 19.7815C20.2372 20.5948 17.3212 21.5672 14.5845 23.0347C10.7895 25.068 7.30827 27.9216 4.50257 31.2349C2.29662 33.8375 0.473268 36.9351 0.0734392 40.4146C-0.381539 44.3679 1.31428 48.2894 4.14066 50.9415C4.33368 51.1254 4.53705 51.2986 4.7473 51.4613L4.50947 50.8637C3.8925 54.9302 3.32378 59.0639 3.20314 63.1799C3.04114 68.7775 3.7822 74.4883 5.13334 79.9091C7.78394 90.5386 13.1541 100.39 20.5543 108.304C27.9374 116.2 37.2851 122.102 47.498 125.274C58.1417 128.576 69.6368 128.88 80.4357 126.175C90.8347 123.573 100.496 118.159 108.293 110.645C116.062 103.155 121.908 93.6327 125.106 83.1977C128.439 72.3171 128.853 60.5314 126.337 49.4245C123.91 38.7208 118.733 28.7455 111.484 20.662C104.27 12.6174 95.0536 6.52473 84.9199 3.13363C73.1284 -0.812641 60.1995 -1.03541 48.2804 2.48653C44.9818 3.46249 41.7694 4.72487 38.6707 6.23831C38.071 6.53181 38.5949 7.44765 39.1912 7.15416L39.205 7.15062Z" fill="#12B51E"/>
<path d="M5.51259 51.1431C5.71251 49.6225 6.26056 48.0843 6.85685 46.7088C8.36311 43.2187 10.6794 40.1494 13.5574 37.7342C15.5394 36.0723 17.7867 34.7356 20.1408 33.7102C20.5303 33.5404 20.9233 33.4061 21.2886 33.1868C21.6264 32.9817 21.9608 32.7696 22.2917 32.5539C25.0422 30.7575 27.6618 28.6394 29.8298 26.1288C32.3529 23.208 34.4003 19.4597 33.7109 15.4321C33.6282 14.9406 33.4972 14.4633 33.3387 13.993C33.1181 13.3529 32.1219 13.6287 32.3425 14.2758C33.642 18.0701 31.9772 21.836 29.6127 24.7674C27.4929 27.3947 24.8561 29.5836 22.0745 31.44C21.5713 31.7759 21.0542 32.1543 20.5096 32.4195C19.2722 33.0206 18.0073 33.5192 16.8043 34.2087C15.7151 34.8311 14.6673 35.5312 13.6746 36.3021C10.5898 38.7031 8.03222 41.7937 6.3295 45.3686C5.52295 47.0624 4.81979 48.9047 4.53026 50.7788C4.52681 50.8071 4.51993 50.8354 4.51648 50.8602C4.47857 51.1466 4.58197 51.4259 4.87839 51.5143C5.11967 51.5851 5.47813 51.4259 5.51604 51.1431H5.51259Z" fill="#12B51E"/>
<path d="M127.216 69.5697C127.216 69.5697 118.323 68.5902 115.91 57.2747C113.497 45.9592 99.0209 56.9211 88.87 63.9933C78.7192 71.0655 79.0294 53.7386 82.8209 48.7881C86.6124 43.8376 78.34 32.5221 70.24 39.7746C62.1401 47.0271 65.9315 21.9139 68.3443 25.0963C70.7571 28.2788 74.8932 21.9139 76.6166 16.9633C78.34 12.0128 84.889 17.6706 84.889 17.6706C93.506 21.2066 102.288 12.8933 102.288 12.8933C102.288 12.8933 130.597 32.3559 127.216 69.5697Z" fill="#12B51E"/>
<path d="M127.216 69.0392C127.105 69.0286 127.319 69.0568 127.274 69.0462C127.205 69.0356 127.133 69.025 127.064 69.0109C126.819 68.9649 126.575 68.9083 126.333 68.8447C125.472 68.6148 124.689 68.3037 123.924 67.9076C121.332 66.5639 119.295 64.3715 117.975 61.7301C117.53 60.8425 117.172 59.9125 116.879 58.9578C116.586 58.003 116.424 56.9564 116.1 55.9875C115.648 54.6438 114.883 53.392 113.677 52.6423C111.133 51.0653 107.776 52.119 105.253 53.1834C101.482 54.7711 98.0075 57.0448 94.6193 59.3503C92.8787 60.5349 91.1587 61.7513 89.4319 62.9571C88.1772 63.8376 86.8916 64.7711 85.3646 65.0681C84.4857 65.2414 83.5826 65.0752 82.9415 64.5731C82.197 63.9861 81.7558 63.1091 81.4629 62.2039C80.6977 59.8277 80.77 57.1367 81.1802 54.6968C81.3905 53.4486 81.6972 52.2074 82.1729 51.037C82.3625 50.5702 82.5899 50.1034 82.8519 49.6685C83.1587 49.1593 83.4999 48.8057 83.7619 48.2328C85.0303 45.4959 83.8308 42.2321 82.0316 40.0645C79.9359 37.5433 76.627 36.2243 73.4697 37.2427C72.5666 37.5327 71.7118 37.9853 70.9397 38.5404C70.3193 38.986 69.7782 39.5412 69.1578 39.969C68.7752 40.2342 68.4856 40.3969 68.1099 40.503C68.0341 40.5242 67.9548 40.5419 67.8756 40.556C67.8445 40.5631 67.9686 40.5489 67.8652 40.556C67.8238 40.556 67.7825 40.5631 67.7377 40.5631C67.6687 40.5631 67.5998 40.5631 67.5274 40.556C67.4309 40.5489 67.6274 40.5772 67.5309 40.556C67.493 40.5454 67.455 40.5419 67.4171 40.5277C67.3654 40.51 67.1759 40.4322 67.3103 40.4959C67.2448 40.4641 67.1862 40.4287 67.1241 40.3934C67.0966 40.3757 67.069 40.3545 67.0414 40.3368C67.0173 40.3191 67.1172 40.404 67.0414 40.3368C66.9863 40.2873 66.9311 40.2342 66.8794 40.1812C66.8484 40.1458 66.7209 39.9867 66.8002 40.0928C66.7519 40.0256 66.7071 39.9584 66.6623 39.8877C66.5692 39.7356 66.4899 39.5765 66.4175 39.4103C66.4417 39.4634 66.3831 39.3219 66.3555 39.2477C66.321 39.1522 66.29 39.0567 66.259 38.9577C66.197 38.7597 66.1487 38.5581 66.1039 38.353C65.997 37.8651 65.9488 37.4938 65.904 37.0376C65.7041 34.8771 65.873 32.6387 66.2142 30.5312C66.3727 29.5411 66.5761 28.5545 66.8553 27.5927C67.0793 26.8219 67.231 26.2914 67.6343 25.655C67.6653 25.6054 67.6998 25.5559 67.7342 25.5064C67.6446 25.6302 67.7411 25.4994 67.7825 25.4569C67.817 25.4216 67.8514 25.3897 67.8859 25.3579C67.9307 25.3155 67.7859 25.4322 67.91 25.3473C68.0169 25.2731 67.8066 25.3721 67.9135 25.3473C68.0307 25.319 67.7687 25.3685 67.9031 25.3508C67.9203 25.3508 67.7549 25.3544 67.8824 25.3544C67.7377 25.3544 67.879 25.3721 67.8824 25.3685C67.848 25.3897 67.8066 25.2731 67.8928 25.3897C67.9514 25.4675 68.0169 25.5453 68.0789 25.6161C68.3064 25.8848 68.589 26.1182 68.9061 26.2702C69.5197 26.5637 70.1987 26.5354 70.8191 26.2773C72.4253 25.6125 73.5869 23.9718 74.5003 22.5361C75.0897 21.6097 75.6102 20.6372 76.072 19.6401C76.4994 18.7172 76.7993 17.7377 77.2198 16.8183C78.4676 14.092 81.8937 16.15 83.5413 17.3063C83.7308 17.4406 83.9204 17.5785 84.1065 17.72C84.1445 17.7518 84.3513 17.9109 84.2513 17.8331C84.303 17.8756 84.3547 17.9145 84.403 17.9569C84.8855 18.3529 85.5714 18.5085 86.1643 18.6641C88.1807 19.2016 90.2901 19.1839 92.3237 18.7667C95.5706 18.1019 98.6279 16.4611 101.258 14.4279C101.73 14.0601 102.206 13.6853 102.643 13.2751L102.016 13.3564C102.271 13.5333 102.519 13.7207 102.768 13.9081C102.902 14.0106 103.036 14.1132 103.167 14.2193C103.202 14.2475 103.236 14.2723 103.271 14.3006C103.302 14.3253 103.192 14.2369 103.309 14.3324C103.395 14.3996 103.478 14.4668 103.564 14.5375C103.957 14.8557 104.343 15.1775 104.722 15.5064C107.052 17.5113 109.227 19.7073 111.25 22.034C114.142 25.365 116.717 28.9859 118.902 32.8438C121.553 37.5256 123.617 42.5468 124.982 47.7767C126.609 54.0214 127.216 60.5066 126.878 66.9564C126.833 67.8298 126.768 68.7032 126.692 69.5731C126.63 70.252 127.664 70.2485 127.726 69.5731C128.322 62.9394 127.957 56.2244 126.519 49.7215C125.303 44.2229 123.324 38.9117 120.705 33.9577C118.54 29.8594 115.934 26.0086 112.987 22.4619C110.868 19.9053 108.565 17.5043 106.09 15.3084C105.311 14.6188 104.519 13.9505 103.702 13.3105C103.34 13.0276 102.978 12.7093 102.588 12.4724C102.571 12.4618 102.557 12.4512 102.54 12.4406C102.344 12.3062 102.075 12.3699 101.913 12.5219C100.386 13.9611 98.528 15.1528 96.6426 16.1075C94.9433 16.9668 93.1199 17.6139 91.2414 17.8862C90.2384 18.0312 89.2147 18.0594 88.2082 17.964C87.674 17.9145 87.1466 17.819 86.6262 17.6882C86.378 17.6245 86.1298 17.5573 85.8851 17.476C85.761 17.4371 85.6369 17.3947 85.5128 17.3487C85.4508 17.3275 85.3888 17.3027 85.3267 17.2815C85.2992 17.2709 85.0337 17.186 85.1923 17.2532C85.3164 17.3027 85.1475 17.2143 85.0923 17.1719C84.9441 17.0517 84.7959 16.935 84.6442 16.8183C84.2134 16.4894 83.7722 16.1782 83.3138 15.8918C82.1625 15.1705 80.8769 14.534 79.5154 14.4173C78.0746 14.297 76.8476 15.0573 76.2685 16.4116C75.8515 17.3805 75.524 18.3812 75.069 19.336C74.5899 20.3438 74.0488 21.3268 73.4387 22.2568C72.9148 23.0524 72.3357 23.8162 71.6429 24.4633C71.1914 24.8876 70.6192 25.3402 69.9884 25.4145C69.3956 25.4817 69.044 25.1033 68.6649 24.679C68.4718 24.4633 68.2202 24.3006 67.9272 24.2865C67.3516 24.2617 66.9415 24.7674 66.6726 25.2271C66.2831 25.8954 66.0384 26.6627 65.8282 27.4088C65.2388 29.4951 64.9354 31.691 64.8251 33.8587C64.7252 35.807 64.7148 37.9853 65.4697 39.817C65.7385 40.4711 66.1522 41.1076 66.7967 41.4188C67.5412 41.776 68.3512 41.6027 69.0647 41.2455C69.53 41.0122 69.954 40.6904 70.3538 40.3545C71.1018 39.725 71.8394 39.1239 72.7114 38.6854C74.1832 37.9428 75.8618 37.7342 77.4473 38.1904C80.2737 39.0037 82.552 41.6876 83.1242 44.619C83.3689 45.8778 83.238 47.2251 82.5176 48.3C81.8834 49.2477 81.3526 50.1812 80.9665 51.2774C80.091 53.7491 79.736 56.5002 79.8842 59.124C80.0083 61.3164 80.4839 63.979 82.2935 65.4005C84.4512 67.0979 87.2604 65.7471 89.2113 64.3892C92.7132 61.9493 96.1773 59.4458 99.8171 57.2286C101.54 56.182 103.302 55.1883 105.142 54.375C106.6 53.7279 108.162 53.1551 109.751 52.9818C110.971 52.851 112.239 52.9535 113.287 53.6643C114.452 54.4564 115.035 55.8637 115.348 57.211C116.2 60.8637 117.689 64.315 120.501 66.8291C122.118 68.2718 124.065 69.368 126.151 69.9055C126.495 69.9939 126.847 70.0682 127.202 70.1071C127.864 70.1813 127.857 69.1205 127.202 69.0462L127.216 69.0392Z" fill="#12B51E"/>
<path d="M89.4697 122.562C90.2624 119.955 79.7152 116.327 74.545 122.692C69.3748 129.057 62.8259 117.742 53.5195 118.095C44.2132 118.449 56.9663 107.841 52.4855 107.134C48.0046 106.426 36.2855 93.3428 34.2174 100.415C32.1493 107.487 13.8261 98.7743 13.8261 98.7743C13.8261 98.7743 38.9051 141.529 89.4697 122.562Z" fill="#12B51E"/>
<path d="M89.9696 122.703C90.3591 121.32 88.8494 120.281 87.8291 119.778C86.0265 118.887 83.9446 118.541 81.9558 118.626C79.6085 118.728 77.313 119.488 75.4724 121.013C74.6072 121.727 74.0006 122.731 73.0941 123.385C72.4461 123.852 71.7084 124.107 70.9157 124.107C69.1061 124.107 67.3758 123.071 65.8454 122.19C63.8118 121.016 61.823 119.757 59.6619 118.838C58.5451 118.36 57.3835 117.979 56.1909 117.766C55.5636 117.653 54.9259 117.583 54.2883 117.561C53.7334 117.544 53.1784 117.59 52.6235 117.561C52.2512 117.544 51.8824 117.498 51.5205 117.392C51.3516 117.342 51.2792 117.317 51.1689 117.257C51.1103 117.229 51.0586 117.194 51.0035 117.162C50.9759 117.148 50.9518 117.13 50.9277 117.112C50.876 117.077 50.9828 117.165 50.9104 117.102C50.8622 117.059 50.8208 117.017 50.776 116.971C50.7071 116.9 50.7208 116.9 50.7312 116.918C50.7002 116.868 50.6692 116.815 50.6416 116.762C50.5795 116.645 50.6416 116.79 50.6106 116.688C50.5968 116.635 50.583 116.585 50.5692 116.532C50.5347 116.394 50.5589 116.508 50.5554 116.447C50.5451 116.317 50.5485 116.186 50.5554 116.055C50.5623 115.931 50.5554 116.034 50.5623 115.967C50.5692 115.899 50.583 115.839 50.5968 115.776C50.6278 115.624 50.6657 115.475 50.714 115.33C50.8105 115.012 50.907 114.778 51.0276 114.506C51.3241 113.841 51.6791 113.205 52.0375 112.572C52.6924 111.419 53.4783 110.252 53.8609 108.962C54.0057 108.47 54.078 107.894 53.8368 107.42C53.592 106.942 53.1233 106.72 52.6269 106.624C51.1965 106.345 49.904 105.425 48.6769 104.595C46.9638 103.435 45.3128 102.179 43.6101 101.005C42.059 99.9375 40.4459 98.8696 38.6812 98.2119C37.4093 97.738 35.8686 97.5047 34.7587 98.4806C34.1865 98.9827 33.9177 99.6829 33.6833 100.394C33.5041 100.931 33.1387 101.447 32.7182 101.759C31.567 102.618 29.9849 102.699 28.5717 102.636C26.7035 102.551 24.856 102.14 23.0534 101.642C21.2851 101.154 19.548 100.556 17.8349 99.895C17.1559 99.6334 16.4837 99.3611 15.8116 99.0782C15.3704 98.8908 15.0395 98.7494 14.5501 98.5266C14.395 98.4559 14.2364 98.3851 14.0813 98.3109C13.6401 98.1023 13.0852 98.5478 13.3747 99.0358C13.6022 99.4247 13.8504 99.7996 14.0986 100.174C14.8052 101.232 15.5566 102.261 16.3321 103.265C17.473 104.739 18.6759 106.165 19.9306 107.537C21.5333 109.287 23.2257 110.956 25.0008 112.526C27.0827 114.375 29.2783 116.094 31.5704 117.664C34.1004 119.397 36.7544 120.938 39.5084 122.264C42.5588 123.732 45.7264 124.938 48.9733 125.846C52.5408 126.844 56.2047 127.48 59.8928 127.766C64.0048 128.085 68.1444 127.961 72.2358 127.448C76.9062 126.865 81.5077 125.797 85.992 124.336C87.2053 123.94 88.4082 123.52 89.6042 123.071C90.2247 122.837 89.9558 121.812 89.3285 122.049C84.7718 123.753 80.0807 125.093 75.2931 125.928C71.1501 126.649 66.9381 126.978 62.733 126.858C59.0173 126.752 55.3154 126.285 51.6894 125.447C48.3943 124.683 45.1577 123.622 42.0453 122.271C39.1948 121.034 36.4408 119.559 33.8108 117.883C31.4567 116.384 29.2025 114.725 27.062 112.926C25.2007 111.359 23.4187 109.686 21.7298 107.926C20.358 106.493 19.0447 105.005 17.8004 103.452C17.5419 103.131 17.2869 102.805 17.0353 102.48C16.9215 102.335 16.8112 102.186 16.6975 102.038C16.6044 101.914 16.7009 102.045 16.5906 101.893C16.5389 101.822 16.4838 101.751 16.4321 101.677C16.0701 101.186 15.7151 100.691 15.367 100.189C15.0189 99.6864 14.6983 99.0641 14.3088 98.569C14.2916 98.5478 14.2812 98.5231 14.2675 98.4983L13.5609 99.2232C15.6152 100.199 17.7487 101.034 19.8961 101.766C21.7022 102.384 23.5428 102.922 25.4179 103.286C27.1585 103.626 28.9646 103.848 30.7294 103.594C32.1219 103.392 33.5075 102.805 34.2796 101.543C34.6553 100.931 34.738 100.21 35.1275 99.6157C35.2516 99.4283 35.4515 99.2267 35.6376 99.11C35.8513 98.9757 36.0271 98.9085 36.3374 98.859C36.2512 98.8731 36.4201 98.8519 36.4545 98.8484C36.5235 98.8448 36.5958 98.8413 36.6648 98.8413C36.7889 98.8413 37.037 98.859 37.0819 98.866C37.43 98.912 37.7747 99.0075 38.109 99.1206C38.9052 99.3858 39.6566 99.7748 40.3873 100.192C42.1625 101.203 43.8204 102.42 45.4817 103.615C47.0018 104.711 48.5183 105.85 50.159 106.759C50.7622 107.091 51.3999 107.413 52.0685 107.579C52.1961 107.611 52.3271 107.628 52.458 107.657C52.5132 107.667 52.5684 107.685 52.6235 107.699C52.6476 107.706 52.6752 107.717 52.6993 107.724C52.8096 107.763 52.6821 107.713 52.7131 107.731C52.7545 107.752 52.7958 107.773 52.8337 107.802C52.9372 107.88 52.7579 107.738 52.8544 107.819C52.8992 107.858 52.9096 107.872 52.9234 107.911C52.8958 107.844 52.9647 108.169 52.9509 107.996C52.9578 108.102 52.9578 108.205 52.9475 108.311C52.9475 108.283 52.9613 108.251 52.9371 108.36C52.9234 108.421 52.913 108.481 52.8958 108.541C52.8648 108.665 52.8234 108.785 52.782 108.905C52.6131 109.375 52.2754 110.015 51.9824 110.549C51.2792 111.819 50.4899 113.053 49.9419 114.407C49.5179 115.457 49.2008 116.819 50.0729 117.735C51.324 119.046 53.5783 118.505 55.1534 118.668C59.7997 119.149 63.3913 122.356 67.5068 124.252C69.0785 124.976 70.895 125.521 72.577 124.849C73.4732 124.492 74.2246 123.873 74.8485 123.131C75.6447 122.183 76.5374 121.391 77.6232 120.811C79.5844 119.761 81.8834 119.488 84.0618 119.761C85.5853 119.952 87.4776 120.436 88.5771 121.536C88.7839 121.741 88.8425 121.798 88.9597 122.07C88.9045 121.939 89.0011 122.356 88.9907 122.183C88.9942 122.24 88.9976 122.296 88.9907 122.353C88.9976 122.303 89.0011 122.314 88.97 122.416C88.7839 123.074 89.7835 123.353 89.9662 122.699L89.9696 122.703Z" fill="#12B51E"/>
<path d="M27.3239 57.9819C27.3239 57.9819 46.2814 49.8489 46.626 59.0427C46.9707 68.2366 54.5537 79.1984 58.0005 72.8335C61.4473 66.4685 74.5452 84.5026 66.9622 82.7345C59.3792 80.9665 41.8005 87.685 37.6644 79.552C33.5282 71.419 34.2176 67.1757 23.5325 67.1757C12.8474 67.1757 20.775 62.9324 21.1197 59.0427C21.4644 55.1531 23.8771 63.6397 27.3239 57.9819Z" fill="#12B51E"/>
<path d="M27.4617 58.4946C30.5293 57.1792 33.79 56.1573 37.061 55.5632C39.1498 55.1813 41.4833 54.9019 43.5341 55.5738C44.2959 55.8249 45.0507 56.2846 45.4816 56.9317C46.1227 57.8935 46.0709 58.9791 46.1847 60.1354C46.5397 63.8058 47.784 67.4727 49.7108 70.5915C50.5036 71.8751 51.4376 73.1199 52.6061 74.064C53.4747 74.7641 54.557 75.3653 55.6979 75.2486C56.9181 75.1213 57.8073 74.2337 58.4036 73.1906C58.7828 72.5223 59.1344 72.1474 59.8375 72.0201C59.9788 71.9954 59.7272 72.0272 59.872 72.0166C59.9099 72.0166 59.9443 72.0095 59.9823 72.0095C60.065 72.0095 60.1443 72.006 60.227 72.0095C60.4786 72.0201 60.4579 72.0201 60.6889 72.0696C61.0783 72.158 61.4368 72.2959 61.7401 72.448C62.5777 72.8653 63.3325 73.431 64.0254 74.0534C65.5488 75.4183 66.8862 77.0661 67.872 78.8837C68.2649 79.6086 68.5682 80.238 68.7268 81.0619C68.7682 81.2811 68.7613 81.1821 68.7716 81.4332C68.7716 81.4968 68.7716 81.5569 68.7716 81.6206C68.7716 81.656 68.7682 81.6913 68.7647 81.7267C68.7578 81.8363 68.7923 81.6065 68.7647 81.7408C68.7509 81.8009 68.7371 81.8575 68.7234 81.9141C68.682 82.0768 68.7406 81.8893 68.7027 81.9742C68.6785 82.0237 68.6475 82.0697 68.6199 82.1157C68.713 81.9777 68.6062 82.1298 68.5648 82.1652C68.4649 82.2465 68.6475 82.1192 68.4993 82.2111C68.4511 82.2394 68.327 82.2889 68.4511 82.243C68.3856 82.2677 68.3201 82.2854 68.2511 82.3066C68.2167 82.3172 68.1788 82.3207 68.1408 82.3278C68.2753 82.3031 68.1546 82.3278 68.1202 82.3278C67.6859 82.3561 67.4377 82.3031 67.0379 82.2182C65.828 81.953 64.5838 81.8929 63.3532 81.907C60.289 81.9424 57.2352 82.3879 54.1916 82.7168C51.1067 83.0456 47.9633 83.3568 44.8646 83.0315C42.538 82.7875 39.9288 82.0661 38.5225 79.9869C37.6745 78.7352 37.1058 77.2252 36.4992 75.8391C35.9684 74.6262 35.4617 73.3957 34.8585 72.2182C34.3484 71.2174 33.7486 70.245 32.9697 69.4388C32.1907 68.6326 31.1808 67.9961 30.1123 67.5823C28.7129 67.0378 27.1928 66.8292 25.7072 66.7301C23.8218 66.6028 21.8951 66.7938 20.0338 66.4084C19.7615 66.3518 19.4858 66.2846 19.2238 66.1856C19.117 66.1467 19.0652 66.1219 18.9584 66.0654C18.9067 66.0371 18.7137 65.9098 18.7654 65.9522C18.7033 65.9027 18.6447 65.8426 18.5896 65.7825C18.6275 65.8249 18.5586 65.7507 18.5241 65.6729C18.4724 65.5491 18.5655 65.7825 18.5172 65.6552C18.5069 65.6269 18.4965 65.5915 18.4931 65.5632C18.4896 65.5279 18.4793 65.4395 18.4931 65.5703C18.4896 65.5173 18.4862 65.4642 18.4896 65.4112C18.4965 65.2662 18.469 65.4465 18.5 65.3051C18.5172 65.2167 18.5413 65.1318 18.5689 65.047C18.6275 64.8596 18.662 64.7924 18.7792 64.5731C18.9929 64.1665 19.2514 63.7811 19.5099 63.4027C20.0855 62.5576 20.7025 61.7301 21.1368 60.8001C21.347 60.3475 21.5263 59.8772 21.6021 59.3822C21.64 59.1346 21.6469 58.9154 21.6917 58.7068C21.7089 58.6325 21.7262 58.5547 21.7503 58.4805C21.7951 58.3532 21.7055 58.583 21.7538 58.4734C21.7986 58.3708 21.7296 58.4663 21.7538 58.4628C21.7986 58.4592 21.6159 58.5335 21.6572 58.5229C21.4539 58.5724 21.6917 58.5264 21.4918 58.5229C21.5021 58.5229 21.5539 58.5335 21.5607 58.5441C21.5056 58.4699 21.4987 58.5052 21.5883 58.5689C21.6159 58.5865 21.6435 58.6078 21.671 58.6254C21.7365 58.6714 21.5986 58.5618 21.7124 58.6608C21.9847 58.8942 22.2329 59.1559 22.4948 59.3963C23.1497 59.9974 23.9356 60.5703 24.8559 60.5491C26.1829 60.5172 27.1239 59.3256 27.7719 58.2754C28.1303 57.6955 27.2342 57.165 26.8792 57.7414C26.5241 58.3178 26.0691 58.9791 25.4418 59.3185C25.0765 59.5165 24.7663 59.5342 24.4147 59.4281C23.7253 59.2195 23.1876 58.5972 22.5982 58.0526C22.0846 57.5788 21.285 57.1261 20.8438 57.9713C20.6198 58.4027 20.6473 58.9402 20.5612 59.3397C20.4612 59.81 20.2889 60.199 20.0683 60.6198C19.5788 61.5427 18.9377 62.3702 18.369 63.2436C17.9278 63.9154 17.4004 64.7323 17.4625 65.5809C17.5349 66.617 18.4896 67.1156 19.3617 67.3525C21.1885 67.8476 23.1187 67.6884 24.9834 67.7662C27.5858 67.8758 30.45 68.279 32.3354 70.3051C33.0972 71.122 33.6521 72.1156 34.145 73.1234C34.7654 74.3893 35.2962 75.6977 35.8684 76.9848C36.4785 78.3533 37.0507 79.8455 37.9848 81.023C38.7706 82.0131 39.8322 82.7132 40.9731 83.1977C43.6513 84.3257 46.7258 84.3292 49.5695 84.1878C52.8508 84.0251 56.1046 83.5513 59.3722 83.2366C60.8405 83.0951 62.3123 82.982 63.7875 82.9891C64.4286 82.9891 65.0697 83.0174 65.7039 83.0881C66.2175 83.1447 66.7173 83.2755 67.224 83.3568C67.9306 83.47 68.7682 83.4735 69.3128 82.9183C69.8022 82.4233 69.8574 81.6984 69.7608 81.0336C69.4989 79.1984 68.3235 77.4763 67.2412 76.0477C65.9797 74.3858 64.4493 72.7875 62.6398 71.7585C61.2403 70.9628 59.3791 70.4996 58.121 71.8186C57.4178 72.5541 57.1249 73.6715 56.1529 74.0852C55.1809 74.4989 54.233 74.0109 53.4299 73.4098C52.2442 72.5223 51.3204 71.2563 50.5484 69.9904C49.5764 68.3992 48.8077 66.6736 48.2355 64.8914C47.6427 63.0491 47.2429 61.1361 47.1533 59.1948C47.1016 58.0809 46.8568 57.0201 46.164 56.136C44.8646 54.4741 42.5552 54.1488 40.6112 54.1664C38.1536 54.1877 35.6995 54.7216 33.335 55.3793C31.5323 55.8814 29.7572 56.4826 28.0132 57.1686C27.7374 57.2782 27.4617 57.3878 27.1894 57.5045C26.9171 57.6212 26.7516 57.8546 26.8275 58.1587C26.8929 58.4097 27.2066 58.6396 27.4651 58.53L27.4617 58.4946Z" fill="#12B51E"/>
<path d="M94.1918 99.7075C105.222 91.5745 106.6 100.061 109.702 93.3425C112.805 86.624 111.771 102.536 108.324 102.536C104.877 102.536 97.9833 102.89 97.9833 105.012C97.9833 107.133 87.4775 112.437 87.7325 105.012C87.9876 97.5858 86.6089 103.244 91.4344 102.536C96.2599 101.829 94.1918 99.7075 94.1918 99.7075Z" fill="#12B51E"/>
<path d="M94.4538 100.164C97.3388 98.0491 100.655 96.1432 104.315 96.4579C105.149 96.5286 105.997 96.7479 106.835 96.6948C107.741 96.6382 108.486 96.1927 109.054 95.4713C109.475 94.9409 109.802 94.3433 110.092 93.728C110.226 93.4416 110.361 93.1552 110.516 92.8829C110.575 92.7768 110.637 92.6743 110.702 92.5717C110.73 92.5293 110.757 92.4904 110.785 92.4515C110.826 92.3914 110.757 92.4798 110.833 92.3879C110.885 92.3278 110.936 92.2747 110.992 92.2217C110.985 92.2287 111.029 92.204 111.012 92.204C111.026 92.204 110.94 92.2111 110.971 92.2146C110.94 92.2111 110.83 92.1757 110.905 92.2075C110.861 92.1898 110.785 92.1403 110.857 92.1934C110.774 92.1333 110.833 92.1934 110.795 92.1368C110.83 92.1863 110.895 92.3525 110.84 92.204C110.899 92.356 110.933 92.5116 110.964 92.6708C110.971 92.7132 110.978 92.7556 110.985 92.7945C110.985 92.8016 110.981 92.7379 110.992 92.8546C111.002 92.9713 111.012 93.0809 111.019 93.1941C111.033 93.431 111.04 93.6715 111.036 93.9119C111.033 94.4918 110.992 95.0753 110.93 95.6517C110.799 96.8716 110.557 98.0986 110.188 99.2691C109.899 100.185 109.52 101.186 108.848 101.78C108.758 101.861 108.875 101.766 108.806 101.815C108.772 101.836 108.741 101.861 108.706 101.882C108.672 101.903 108.637 101.921 108.603 101.939C108.537 101.974 108.675 101.921 108.551 101.96C108.472 101.985 108.32 102.006 108.417 101.999C108.272 102.01 108.131 102.002 107.986 102.002C107.093 102.01 106.201 102.034 105.308 102.087C103.474 102.193 101.568 102.342 99.8033 102.897C99.169 103.095 98.5073 103.357 98.0109 103.827C97.8041 104.025 97.6283 104.273 97.5387 104.552C97.4973 104.683 97.4767 104.821 97.4663 104.959C97.4525 105.15 97.5042 104.909 97.4525 105.075C97.4043 105.231 97.4767 105.061 97.4146 105.174C97.3698 105.256 97.325 105.333 97.2733 105.411C97.225 105.482 97.3147 105.362 97.2354 105.461C97.2044 105.496 97.1768 105.531 97.1458 105.567C97.0699 105.655 96.9872 105.74 96.9045 105.821C96.5253 106.189 96.1428 106.461 95.6878 106.748C94.6193 107.416 93.437 107.918 92.2065 108.169C91.1759 108.382 89.9902 108.417 89.1595 107.766C88.0738 106.914 88.2599 105.192 88.2806 103.877C88.2909 103.155 88.2875 102.437 88.2633 101.716C88.2599 101.564 88.2634 101.408 88.2496 101.26C88.2358 101.133 88.2737 101.246 88.2392 101.292C88.091 101.49 88.384 101.324 87.9118 101.522C87.3672 101.748 87.7842 101.606 87.5154 101.592C87.5188 101.592 87.3706 101.493 87.443 101.539C87.5154 101.589 87.3569 101.423 87.4361 101.529C87.4913 101.603 87.543 101.677 87.6016 101.748C87.6912 101.861 87.7843 101.974 87.8842 102.077C88.2185 102.413 88.6184 102.667 89.0527 102.841C89.6593 103.085 90.3314 103.152 90.9794 103.106C91.9721 103.039 93.0234 102.826 93.9196 102.377C94.9054 101.886 95.4637 100.885 94.9157 99.8278C94.8226 99.6474 94.6985 99.4671 94.5572 99.3221C94.0884 98.8377 93.3577 99.5873 93.8265 100.072C93.8679 100.114 93.9747 100.27 93.8713 100.118C93.9058 100.167 93.9402 100.217 93.9713 100.266C93.9954 100.309 94.0781 100.478 94.0574 100.422C94.1057 100.535 94.1333 100.627 94.116 100.786C94.1298 100.666 94.0574 100.952 94.0953 100.867C94.0367 101.002 94.0264 101.009 93.9471 101.09C93.3681 101.691 92.3134 101.85 91.5309 101.978C90.8485 102.091 90.1522 102.105 89.4904 101.879C89.3077 101.815 89.1216 101.716 88.9148 101.582C88.7976 101.504 88.7252 101.444 88.5667 101.274C88.5184 101.221 88.4702 101.168 88.4219 101.111C88.4012 101.087 88.3805 101.058 88.3564 101.03C88.284 100.942 88.4254 101.122 88.3599 101.037C88.2944 100.949 88.2358 100.843 88.153 100.768C87.7256 100.365 87.2328 100.747 87.2155 101.26C87.1983 101.713 87.2431 102.172 87.25 102.625C87.2672 104.287 86.8984 106.225 87.7808 107.731C88.4288 108.838 89.611 109.319 90.8243 109.358C92.1617 109.4 93.4956 108.993 94.7123 108.456C95.7946 107.975 96.8907 107.346 97.7317 106.479C98.0316 106.168 98.328 105.8 98.4521 105.369C98.4797 105.27 98.4935 105.164 98.5038 105.061C98.5176 104.93 98.4762 104.994 98.5417 104.831C98.5348 104.846 98.6141 104.715 98.6313 104.693C98.7106 104.602 98.8037 104.52 98.8761 104.467C99.4551 104.046 100.196 103.862 100.875 103.703C101.799 103.488 102.736 103.36 103.677 103.268C104.618 103.176 105.639 103.116 106.618 103.085C107.3 103.063 108.093 103.18 108.755 103C109.682 102.749 110.271 101.78 110.654 100.945C111.185 99.7818 111.509 98.5265 111.733 97.2677C111.95 96.0513 112.095 94.803 112.067 93.5654C112.05 92.8688 112.05 91.7054 111.385 91.2775C110.564 90.7507 109.871 91.8751 109.547 92.4798C109.223 93.0845 108.948 93.7634 108.565 94.361C108.41 94.605 108.3 94.7606 108.11 94.9692C107.934 95.1602 107.845 95.238 107.7 95.337C107.624 95.3865 107.545 95.4324 107.465 95.4749C107.348 95.535 107.51 95.4607 107.424 95.4961C107.376 95.5138 107.328 95.5315 107.276 95.5491C107.197 95.5739 107.114 95.5916 107.031 95.6092C107 95.6163 106.859 95.634 106.993 95.6163C106.948 95.6199 106.9 95.6269 106.855 95.6305C106.456 95.6481 106.066 95.6092 105.67 95.5597C104.587 95.4183 103.519 95.291 102.426 95.4006C100.62 95.581 98.9071 96.2316 97.3043 97.0873C96.1255 97.7132 95.0087 98.4558 93.9333 99.2479C93.3956 99.6404 93.9127 100.563 94.4538 100.164Z" fill="#12B51E"/>
</svg>
