<svg width="97" height="19" viewBox="0 0 97 19" fill="none" xmlns="http://www.w3.org/2000/svg">
<path d="M16.608 18.368H10.56L9.47199 13.76C9.42933 13.5893 9.35466 13.3013 9.24799 12.896C9.16266 12.4693 9.05599 12.16 8.92799 11.968C8.79999 11.7547 8.61866 11.616 8.38399 11.552C7.78666 11.5733 6.91199 11.584 5.75999 11.584V18.368H-6.07967e-06V0.288012C2.58133 0.0960115 4.99199 1.14441e-05 7.23199 1.14441e-05C9.25866 1.14441e-05 10.9013 0.170678 12.16 0.512011C13.4187 0.83201 14.3573 1.39734 14.976 2.20801C15.616 2.99734 15.936 4.08534 15.936 5.47201C15.936 6.77334 15.6373 7.79734 15.04 8.54401C14.4427 9.26934 13.4827 9.70668 12.16 9.85601V10.048C12.9067 10.112 13.5253 10.3573 14.016 10.784C14.528 11.1893 14.8693 11.712 15.04 12.352L16.608 18.368ZM5.75999 7.96801C5.95199 7.98934 6.32533 8.00001 6.87999 8.00001C8.52266 8.00001 9.48266 7.86134 9.75999 7.58401C10.016 7.32801 10.144 6.73068 10.144 5.79201C10.144 4.91734 9.90933 4.32001 9.43999 4.00001C8.99199 3.68001 8.24533 3.52001 7.19999 3.52001C6.96533 3.52001 6.48533 3.54134 5.75999 3.58401V7.96801ZM18.4025 0.12801H31.6825V3.96801H24.1625V7.29601H30.4985V10.752H24.1625V14.464H31.6505V18.368H18.4025V0.12801ZM34.061 0.12801H39.821V14.144H47.277V18.368H34.061V0.12801ZM49.1837 0.12801H62.4637V3.96801H54.9437V7.29601H61.2797V10.752H54.9437V14.464H62.4317V18.368H49.1837V0.12801ZM75.4662 14.368H70.1542L69.1942 18.368H63.3062L69.1942 0.12801H76.7142L82.3462 18.368H76.4262L75.4662 14.368ZM72.7782 4.06401L70.8902 10.816H74.6982L72.9062 4.06401H72.7782ZM83.8735 0.12801H96.9615V4.09601H89.6335V7.71201H95.6815V11.2H89.6335V18.368H83.8735V0.12801Z" fill="#12B51E"/>
</svg>
